<svg width="1024" height="1024" viewBox="0 0 1024 1024" fill="none" xmlns="http://www.w3.org/2000/svg">
<rect width="1024" height="1024" rx="250" fill="#222222"/>
<path fill-rule="evenodd" clip-rule="evenodd" d="M462.024 226.12C458.163 222.218 452.914 220.026 447.438 220.025L182.639 220C174.286 219.999 166.766 225.069 163.561 232.845C160.381 240.62 162.148 249.571 168.053 255.523L438.555 528.445V783.191C438.555 791.607 443.577 799.194 451.299 802.415C458.996 805.636 467.879 803.856 473.784 797.906L604.43 666.087C604.985 665.515 605.515 664.914 606.02 664.294L735.201 533.954C739.92 530.067 742.798 524.187 742.798 517.836V395.277H841.368C849.721 395.277 857.242 390.207 860.421 382.431C863.626 374.655 861.86 365.705 855.955 359.754L736.741 239.485C730.836 233.534 721.978 231.753 714.281 234.974C711.606 236.081 709.284 237.705 707.366 239.701L591.433 356.667L462.024 226.12ZM479.816 570.062L560.545 651.509L479.816 732.955V570.062ZM589.743 621.849L692.856 517.839L438.908 261.642L232.43 261.622L471.664 502.988C472.396 503.553 473.103 504.171 473.784 504.842L589.743 621.849ZM791.578 353.659H742.798V304.435L791.578 353.659ZM620.682 386.018L701.537 304.438V467.598L620.682 386.018Z" fill="white"/>
</svg>
