<svg width="24" height="24" viewBox="0 0 24 24" fill="none" xmlns="http://www.w3.org/2000/svg">
    <path
        d="M22.7195 1.74763H1.28048C0.573456 1.74763 0 2.32109 0 3.02811V16.5719C0 17.2789 0.573456 17.8524 1.28048 17.8524H9.76722L8.62428 20.6024H8.10003C7.64459 20.6024 7.27508 20.9719 7.27508 21.4273C7.27508 21.8828 7.64459 22.2524 8.10003 22.2524H15.9C16.3555 22.2524 16.7251 21.8828 16.7251 21.4273C16.7251 20.9719 16.3555 20.6024 15.9 20.6024H15.3758L14.2328 17.8524H22.7195C23.4265 17.8524 24 17.2789 24 16.5719V3.02811C24 2.32109 23.4265 1.74763 22.7195 1.74763ZM18.5781 17.0238C18.2469 17.0238 17.9781 16.755 17.9781 16.4238C17.9781 16.0925 18.2468 15.8238 18.5781 15.8238C18.9093 15.8238 19.1782 16.0924 19.1782 16.4238C19.1781 16.755 18.9093 17.0238 18.5781 17.0238ZM20.5281 17.0238C20.1968 17.0238 19.9281 16.755 19.9281 16.4238C19.9281 16.0925 20.1968 15.8238 20.5281 15.8238C20.8593 15.8238 21.1281 16.0924 21.1281 16.4238C21.1281 16.755 20.8593 17.0238 20.5281 17.0238ZM21.7149 14.609C21.7149 14.9183 21.4641 15.1692 21.1547 15.1692H2.84525C2.53591 15.1692 2.28507 14.9184 2.28507 14.609V4.86253C2.28507 4.55309 2.53586 4.30236 2.84525 4.30236H21.1547C21.464 4.30236 21.7148 4.55309 21.7148 4.86253V14.609H21.7149Z"
        fill="currentColor" />
    <path
        d="M9.0062 9.84917H8.83827V7.07028C8.83827 6.92228 8.71869 6.8027 8.57108 6.8027H7.49918C7.40702 6.8027 7.32109 6.85039 7.2726 6.92892L5.47259 9.82613C5.41403 9.9195 5.38354 10.0273 5.38354 10.1375V10.4929C5.38354 10.641 5.50308 10.7605 5.65073 10.7605H7.68663V11.4242C7.68663 11.7421 7.94445 11.9999 8.2624 11.9999C8.58039 11.9999 8.83822 11.7421 8.83822 11.4242V10.7605H9.00615C9.25773 10.7605 9.46158 10.5566 9.46158 10.3047C9.46163 10.0531 9.25778 9.84917 9.0062 9.84917ZM7.68668 8.69763V9.84917H6.51949V9.83318L7.21484 8.69763C7.39062 8.36988 7.5265 8.06597 7.69453 7.73042H7.72652C7.70227 8.06597 7.68668 8.38588 7.68668 8.69763Z"
        fill="currentColor" />
    <path
        d="M11.8788 6.71486C10.5351 6.71486 9.89526 7.90619 9.89526 9.40933C9.90392 10.8804 10.4953 12.0879 11.8383 12.0879C13.1656 12.0879 13.8133 10.9844 13.8133 9.37729C13.8132 7.95429 13.2694 6.71486 11.8788 6.71486ZM11.8702 11.1683C11.3991 11.1683 11.1109 10.6007 11.1186 9.40928C11.1109 8.2019 11.4148 7.63433 11.8624 7.63433C12.3499 7.63433 12.5983 8.2422 12.5983 9.39329C12.5983 10.5769 12.3421 11.1683 11.8702 11.1683Z"
        fill="currentColor" />
    <path
        d="M17.8859 9.84917H17.718V7.07028C17.718 6.92228 17.5984 6.8027 17.4508 6.8027H16.3789C16.2867 6.8027 16.2008 6.85039 16.1524 6.92892L14.3523 9.82613C14.2938 9.9195 14.2633 10.0273 14.2633 10.1375V10.4929C14.2633 10.641 14.3828 10.7605 14.5305 10.7605H16.5664V11.4242C16.5664 11.7421 16.8242 11.9999 17.1422 11.9999C17.4602 11.9999 17.718 11.7421 17.718 11.4242V10.7605H17.8859C18.1375 10.7605 18.3414 10.5566 18.3414 10.3047C18.3414 10.0531 18.1375 9.84917 17.8859 9.84917ZM16.5664 8.69763V9.84917H15.3992V9.83318L16.0946 8.69763C16.2703 8.36988 16.4062 8.06597 16.5742 7.73042H16.6062C16.582 8.06597 16.5664 8.38588 16.5664 8.69763Z"
        fill="currentColor" />
</svg>
