<svg width="24" height="20" viewBox="0 0 24 20" fill="none" xmlns="http://www.w3.org/2000/svg">
    <path fill-rule="evenodd" clip-rule="evenodd"
        d="M10.2865 0.209589C10.1542 0.0759615 9.9742 0.00088121 9.78644 0.000863934L0.70763 2.90038e-09C0.42124 -2.59107e-05 0.163405 0.173596 0.0535215 0.439884C-0.055497 0.706181 0.00506348 1.01271 0.207526 1.21653L9.48189 10.5632V19.2874C9.48189 19.5756 9.65406 19.8354 9.91882 19.9457C10.1827 20.056 10.4873 19.9951 10.6897 19.7913L15.169 15.277C15.1881 15.2574 15.2062 15.2368 15.2235 15.2155L19.6526 10.7518C19.8144 10.6187 19.9131 10.4174 19.9131 10.1999V6.00264H23.2926C23.579 6.00264 23.8369 5.82902 23.9459 5.56271C24.0558 5.29642 23.9952 4.9899 23.7927 4.7861L19.7054 0.667285C19.5029 0.463483 19.1992 0.402508 18.9354 0.512814C18.8436 0.550734 18.764 0.606345 18.6983 0.674705L14.7234 4.68037L10.2865 0.209589ZM10.8965 11.9884L13.6644 14.7777L10.8965 17.5669V11.9884ZM14.6655 13.762L18.2008 10.2L9.494 1.42609L2.41473 1.42541L10.6171 9.69136C10.6422 9.71071 10.6664 9.73187 10.6897 9.75485L14.6655 13.762ZM21.5855 4.57738H19.9131V2.89162L21.5855 4.57738ZM15.7262 5.68556L18.4984 2.89171V8.47938L15.7262 5.68556Z"
        fill="currentColor" />
</svg>
