<svg width="24" height="24" viewBox="0 0 24 24" fill="none" xmlns="http://www.w3.org/2000/svg">
    <path
        d="M20.1634 4.09295L15.0613 2.17072C14.143 1.86721 13.2246 1.96838 12.5103 2.47423C12.2042 2.67657 12.0001 2.87891 11.796 3.08125H7.91843C6.38782 3.08125 5.06128 4.39646 5.06128 5.91401V6.9257C5.06128 7.33038 5.36741 7.73506 5.87761 7.73506C6.38782 7.73506 6.69394 7.33038 6.69394 6.9257V5.91401C6.69394 5.20582 7.30618 4.69997 7.91843 4.69997H11.2858V19.3696H7.91843C7.20414 19.3696 6.69394 18.7626 6.69394 18.1555V17.1439C6.69394 16.7392 6.38782 16.3345 5.87761 16.3345C5.36741 16.3345 5.06128 16.638 5.06128 17.0427V18.0544C5.06128 19.5719 6.28578 20.8871 7.91843 20.8871H11.796C12.0001 21.0895 12.2042 21.393 12.4083 21.4942C12.9185 21.7977 13.4287 22 14.0409 22C14.347 22 14.7552 21.8988 15.0613 21.7977L20.1634 19.8754C21.2858 19.4708 22.0001 18.4591 22.0001 17.245V6.62219C22.0001 5.50933 21.1838 4.39646 20.1634 4.09295Z"
        fill="currentColor" />
    <path
        d="M6.38776 13.5017C6.08163 13.8052 6.08163 14.3111 6.38776 14.6146C6.4898 14.7158 6.69388 14.8169 6.89796 14.8169C7.10204 14.8169 7.30612 14.7158 7.40816 14.6146L9.44898 12.5912C9.55102 12.49 9.55102 12.3889 9.65306 12.3889C9.65306 12.2877 9.7551 12.1865 9.7551 12.0854C9.7551 11.9842 9.7551 11.883 9.65306 11.7819C9.65306 11.6807 9.55102 11.5795 9.44898 11.5795L7.40816 9.55612C7.10204 9.25261 6.59184 9.25261 6.28571 9.55612C5.97959 9.85963 5.97959 10.3655 6.28571 10.669L7 11.3772H2.81633C2.40816 11.3772 2 11.6807 2 12.1865C2 12.6924 2.30612 12.9959 2.81633 12.9959H7.10204L6.38776 13.5017Z"
        fill="currentColor" />
</svg>
