<svg width="24" height="24" viewBox="0 0 24 24" fill="none" xmlns="http://www.w3.org/2000/svg">
    <path
        d="M22.0001 6.62219V17.245C22.0001 18.3579 21.2858 19.4708 20.1634 19.8754L15.0613 21.7977C14.7552 21.8988 14.4491 22 14.0409 22C13.5307 22 12.9185 21.7977 12.4083 21.4942C12.2042 21.2918 11.8981 21.0895 11.796 20.8871H7.91843C6.38782 20.8871 5.06128 19.6731 5.06128 18.0544V17.0427C5.06128 16.638 5.36741 16.2333 5.87761 16.2333C6.38782 16.2333 6.69394 16.5368 6.69394 17.0427V18.0544C6.69394 18.7626 7.30618 19.2684 7.91843 19.2684H11.2858V4.69997H7.91843C7.20414 4.69997 6.69394 5.20582 6.69394 5.91401V6.9257C6.69394 7.33038 6.38782 7.73506 5.87761 7.73506C5.36741 7.73506 5.06128 7.33038 5.06128 6.9257V5.91401C5.06128 4.39646 6.28578 3.08125 7.91843 3.08125H11.796C12.0001 2.87891 12.2042 2.67657 12.4083 2.47423C13.2246 1.96838 14.143 1.86721 15.0613 2.17072L20.1634 4.09295C21.1838 4.39646 22.0001 5.50933 22.0001 6.62219Z"
        fill="currentColor" />
    <path
        d="M4.85714 14.8169C4.65306 14.8169 4.44898 14.7158 4.34694 14.6146L2.30612 12.5912C2.20408 12.49 2.20408 12.3889 2.10204 12.3889C2.10204 12.2877 2 12.1865 2 12.0854C2 11.9842 2 11.883 2.10204 11.7819C2.10204 11.6807 2.20408 11.5795 2.30612 11.5795L4.34694 9.55612C4.65306 9.25261 5.16327 9.25261 5.46939 9.55612C5.77551 9.85963 5.77551 10.3655 5.46939 10.669L4.7551 11.3772H8.93878C9.34694 11.3772 9.7551 11.6807 9.7551 12.1865C9.7551 12.6924 9.34694 12.7936 8.93878 12.7936H4.65306L5.36735 13.5017C5.67347 13.8052 5.67347 14.3111 5.36735 14.6146C5.26531 14.7158 5.06122 14.8169 4.85714 14.8169Z"
        fill="currentColor" />
</svg>
